<mxfile host="app.diagrams.net" modified="2020-06-07T17:45:27.005Z" agent="5.0 (Macintosh; Intel Mac OS X 10_15_5) AppleWebKit/605.1.15 (KHTML, like Gecko) Version/13.1.1 Safari/605.1.15" etag="smtp6uUfPOq3nCG-DICW" version="13.1.14" type="github">
  <diagram id="NadBYorUnw0uhQrt5Yt0" name="Page-1">
    <mxGraphModel dx="983" dy="604" grid="1" gridSize="10" guides="1" tooltips="1" connect="1" arrows="1" fold="1" page="1" pageScale="1" pageWidth="827" pageHeight="1169" math="0" shadow="0">
      <root>
        <mxCell id="0" />
        <mxCell id="1" parent="0" />
        <mxCell id="eQ1a93mBQXryfqyJadW8-94" style="edgeStyle=orthogonalEdgeStyle;rounded=0;orthogonalLoop=1;jettySize=auto;html=1;exitX=0.5;exitY=1;exitDx=0;exitDy=0;entryX=1;entryY=0;entryDx=0;entryDy=0;" edge="1" parent="1" source="eQ1a93mBQXryfqyJadW8-10" target="eQ1a93mBQXryfqyJadW8-13">
          <mxGeometry relative="1" as="geometry" />
        </mxCell>
        <mxCell id="eQ1a93mBQXryfqyJadW8-101" style="edgeStyle=orthogonalEdgeStyle;rounded=0;orthogonalLoop=1;jettySize=auto;html=1;exitX=1;exitY=0.5;exitDx=0;exitDy=0;entryX=0;entryY=0.5;entryDx=0;entryDy=0;" edge="1" parent="1" source="eQ1a93mBQXryfqyJadW8-10" target="eQ1a93mBQXryfqyJadW8-95">
          <mxGeometry relative="1" as="geometry" />
        </mxCell>
        <mxCell id="eQ1a93mBQXryfqyJadW8-10" value="" style="rounded=0;whiteSpace=wrap;html=1;" vertex="1" parent="1">
          <mxGeometry x="220" y="170" width="270" height="150" as="geometry" />
        </mxCell>
        <mxCell id="eQ1a93mBQXryfqyJadW8-2" value="" style="whiteSpace=wrap;html=1;aspect=fixed;" vertex="1" parent="1">
          <mxGeometry x="220" y="170" width="60" height="60" as="geometry" />
        </mxCell>
        <mxCell id="eQ1a93mBQXryfqyJadW8-3" value="" style="endArrow=none;html=1;entryX=1;entryY=0;entryDx=0;entryDy=0;exitX=0;exitY=1;exitDx=0;exitDy=0;" edge="1" parent="1" source="eQ1a93mBQXryfqyJadW8-2" target="eQ1a93mBQXryfqyJadW8-2">
          <mxGeometry width="50" height="50" relative="1" as="geometry">
            <mxPoint x="220" y="220" as="sourcePoint" />
            <mxPoint x="270" y="170" as="targetPoint" />
          </mxGeometry>
        </mxCell>
        <mxCell id="eQ1a93mBQXryfqyJadW8-4" value="" style="endArrow=none;html=1;exitX=0;exitY=0;exitDx=0;exitDy=0;entryX=1;entryY=1;entryDx=0;entryDy=0;" edge="1" parent="1" source="eQ1a93mBQXryfqyJadW8-2" target="eQ1a93mBQXryfqyJadW8-2">
          <mxGeometry width="50" height="50" relative="1" as="geometry">
            <mxPoint x="180" y="210" as="sourcePoint" />
            <mxPoint x="280" y="180" as="targetPoint" />
          </mxGeometry>
        </mxCell>
        <mxCell id="eQ1a93mBQXryfqyJadW8-6" value="&lt;font style=&quot;font-size: 8px&quot;&gt;Entrez votre mail&lt;/font&gt;" style="rounded=0;whiteSpace=wrap;html=1;" vertex="1" parent="1">
          <mxGeometry x="240" y="230" width="120" height="30" as="geometry" />
        </mxCell>
        <mxCell id="eQ1a93mBQXryfqyJadW8-7" value="&lt;font style=&quot;font-size: 8px&quot;&gt;Entrez votre mot de passe&lt;/font&gt;" style="rounded=0;whiteSpace=wrap;html=1;" vertex="1" parent="1">
          <mxGeometry x="240" y="260" width="120" height="30" as="geometry" />
        </mxCell>
        <mxCell id="eQ1a93mBQXryfqyJadW8-8" value="" style="rounded=0;whiteSpace=wrap;html=1;" vertex="1" parent="1">
          <mxGeometry x="360" y="260" width="120" height="30" as="geometry" />
        </mxCell>
        <mxCell id="eQ1a93mBQXryfqyJadW8-9" value="" style="rounded=0;whiteSpace=wrap;html=1;" vertex="1" parent="1">
          <mxGeometry x="360" y="230" width="120" height="30" as="geometry" />
        </mxCell>
        <mxCell id="eQ1a93mBQXryfqyJadW8-11" value="Valider" style="rounded=1;whiteSpace=wrap;html=1;" vertex="1" parent="1">
          <mxGeometry x="315" y="290" width="80" height="20" as="geometry" />
        </mxCell>
        <mxCell id="eQ1a93mBQXryfqyJadW8-103" style="edgeStyle=orthogonalEdgeStyle;rounded=0;orthogonalLoop=1;jettySize=auto;html=1;exitX=0.5;exitY=1;exitDx=0;exitDy=0;entryX=0;entryY=0.75;entryDx=0;entryDy=0;" edge="1" parent="1" source="eQ1a93mBQXryfqyJadW8-12" target="eQ1a93mBQXryfqyJadW8-102">
          <mxGeometry relative="1" as="geometry" />
        </mxCell>
        <mxCell id="eQ1a93mBQXryfqyJadW8-12" value="" style="rounded=0;whiteSpace=wrap;html=1;" vertex="1" parent="1">
          <mxGeometry x="215" y="360" width="280" height="190" as="geometry" />
        </mxCell>
        <mxCell id="eQ1a93mBQXryfqyJadW8-13" value="&lt;font style=&quot;font-size: 8px&quot;&gt;Emploi du temps&lt;/font&gt;" style="rounded=0;whiteSpace=wrap;html=1;" vertex="1" parent="1">
          <mxGeometry x="215" y="360" width="140" height="20" as="geometry" />
        </mxCell>
        <mxCell id="eQ1a93mBQXryfqyJadW8-14" value="&lt;font style=&quot;font-size: 8px&quot;&gt;RÃ©capitulatif des cours&lt;/font&gt;" style="rounded=0;whiteSpace=wrap;html=1;" vertex="1" parent="1">
          <mxGeometry x="355" y="360" width="140" height="20" as="geometry" />
        </mxCell>
        <mxCell id="eQ1a93mBQXryfqyJadW8-15" value="" style="rounded=0;whiteSpace=wrap;html=1;" vertex="1" parent="1">
          <mxGeometry x="225" y="390" width="10" height="10" as="geometry" />
        </mxCell>
        <mxCell id="eQ1a93mBQXryfqyJadW8-16" value="" style="rounded=0;whiteSpace=wrap;html=1;" vertex="1" parent="1">
          <mxGeometry x="235" y="390" width="10" height="10" as="geometry" />
        </mxCell>
        <mxCell id="eQ1a93mBQXryfqyJadW8-17" value="" style="rounded=0;whiteSpace=wrap;html=1;" vertex="1" parent="1">
          <mxGeometry x="255" y="390" width="10" height="10" as="geometry" />
        </mxCell>
        <mxCell id="eQ1a93mBQXryfqyJadW8-18" value="" style="rounded=0;whiteSpace=wrap;html=1;" vertex="1" parent="1">
          <mxGeometry x="265" y="390" width="10" height="10" as="geometry" />
        </mxCell>
        <mxCell id="eQ1a93mBQXryfqyJadW8-19" value="" style="rounded=0;whiteSpace=wrap;html=1;" vertex="1" parent="1">
          <mxGeometry x="275" y="390" width="10" height="10" as="geometry" />
        </mxCell>
        <mxCell id="eQ1a93mBQXryfqyJadW8-20" value="" style="rounded=0;whiteSpace=wrap;html=1;" vertex="1" parent="1">
          <mxGeometry x="285" y="390" width="10" height="10" as="geometry" />
        </mxCell>
        <mxCell id="eQ1a93mBQXryfqyJadW8-21" value="" style="rounded=0;whiteSpace=wrap;html=1;" vertex="1" parent="1">
          <mxGeometry x="295" y="390" width="10" height="10" as="geometry" />
        </mxCell>
        <mxCell id="eQ1a93mBQXryfqyJadW8-22" value="" style="rounded=0;whiteSpace=wrap;html=1;" vertex="1" parent="1">
          <mxGeometry x="305" y="390" width="10" height="10" as="geometry" />
        </mxCell>
        <mxCell id="eQ1a93mBQXryfqyJadW8-23" value="" style="rounded=0;whiteSpace=wrap;html=1;" vertex="1" parent="1">
          <mxGeometry x="315" y="390" width="10" height="10" as="geometry" />
        </mxCell>
        <mxCell id="eQ1a93mBQXryfqyJadW8-24" value="" style="rounded=0;whiteSpace=wrap;html=1;" vertex="1" parent="1">
          <mxGeometry x="325" y="390" width="10" height="10" as="geometry" />
        </mxCell>
        <mxCell id="eQ1a93mBQXryfqyJadW8-25" value="" style="rounded=0;whiteSpace=wrap;html=1;" vertex="1" parent="1">
          <mxGeometry x="335" y="390" width="10" height="10" as="geometry" />
        </mxCell>
        <mxCell id="eQ1a93mBQXryfqyJadW8-26" value="" style="rounded=0;whiteSpace=wrap;html=1;" vertex="1" parent="1">
          <mxGeometry x="245" y="390" width="10" height="10" as="geometry" />
        </mxCell>
        <mxCell id="eQ1a93mBQXryfqyJadW8-29" value="" style="rounded=0;whiteSpace=wrap;html=1;" vertex="1" parent="1">
          <mxGeometry x="345" y="390" width="10" height="10" as="geometry" />
        </mxCell>
        <mxCell id="eQ1a93mBQXryfqyJadW8-30" value="" style="rounded=0;whiteSpace=wrap;html=1;" vertex="1" parent="1">
          <mxGeometry x="355" y="390" width="10" height="10" as="geometry" />
        </mxCell>
        <mxCell id="eQ1a93mBQXryfqyJadW8-31" value="" style="rounded=0;whiteSpace=wrap;html=1;" vertex="1" parent="1">
          <mxGeometry x="365" y="390" width="10" height="10" as="geometry" />
        </mxCell>
        <mxCell id="eQ1a93mBQXryfqyJadW8-32" value="" style="rounded=0;whiteSpace=wrap;html=1;" vertex="1" parent="1">
          <mxGeometry x="375" y="390" width="10" height="10" as="geometry" />
        </mxCell>
        <mxCell id="eQ1a93mBQXryfqyJadW8-33" value="" style="rounded=0;whiteSpace=wrap;html=1;" vertex="1" parent="1">
          <mxGeometry x="385" y="390" width="10" height="10" as="geometry" />
        </mxCell>
        <mxCell id="eQ1a93mBQXryfqyJadW8-34" value="" style="rounded=0;whiteSpace=wrap;html=1;" vertex="1" parent="1">
          <mxGeometry x="395" y="390" width="10" height="10" as="geometry" />
        </mxCell>
        <mxCell id="eQ1a93mBQXryfqyJadW8-35" value="" style="rounded=0;whiteSpace=wrap;html=1;" vertex="1" parent="1">
          <mxGeometry x="405" y="390" width="10" height="10" as="geometry" />
        </mxCell>
        <mxCell id="eQ1a93mBQXryfqyJadW8-36" value="" style="rounded=0;whiteSpace=wrap;html=1;" vertex="1" parent="1">
          <mxGeometry x="415" y="390" width="10" height="10" as="geometry" />
        </mxCell>
        <mxCell id="eQ1a93mBQXryfqyJadW8-37" value="" style="rounded=0;whiteSpace=wrap;html=1;" vertex="1" parent="1">
          <mxGeometry x="425" y="390" width="10" height="10" as="geometry" />
        </mxCell>
        <mxCell id="eQ1a93mBQXryfqyJadW8-39" value="" style="rounded=0;whiteSpace=wrap;html=1;" vertex="1" parent="1">
          <mxGeometry x="435" y="390" width="10" height="10" as="geometry" />
        </mxCell>
        <mxCell id="eQ1a93mBQXryfqyJadW8-40" value="" style="rounded=0;whiteSpace=wrap;html=1;" vertex="1" parent="1">
          <mxGeometry x="445" y="390" width="10" height="10" as="geometry" />
        </mxCell>
        <mxCell id="eQ1a93mBQXryfqyJadW8-41" value="" style="rounded=0;whiteSpace=wrap;html=1;" vertex="1" parent="1">
          <mxGeometry x="455" y="390" width="10" height="10" as="geometry" />
        </mxCell>
        <mxCell id="eQ1a93mBQXryfqyJadW8-42" value="" style="rounded=0;whiteSpace=wrap;html=1;" vertex="1" parent="1">
          <mxGeometry x="465" y="390" width="10" height="10" as="geometry" />
        </mxCell>
        <mxCell id="eQ1a93mBQXryfqyJadW8-43" value="" style="rounded=0;whiteSpace=wrap;html=1;" vertex="1" parent="1">
          <mxGeometry x="475" y="390" width="10" height="10" as="geometry" />
        </mxCell>
        <mxCell id="eQ1a93mBQXryfqyJadW8-44" value="" style="rounded=0;whiteSpace=wrap;html=1;" vertex="1" parent="1">
          <mxGeometry x="230" y="420" width="245" height="110" as="geometry" />
        </mxCell>
        <mxCell id="eQ1a93mBQXryfqyJadW8-45" value="&lt;font style=&quot;font-size: 6px&quot;&gt;Lundi&lt;/font&gt;" style="rounded=0;whiteSpace=wrap;html=1;" vertex="1" parent="1">
          <mxGeometry x="275" y="420" width="40" height="10" as="geometry" />
        </mxCell>
        <mxCell id="eQ1a93mBQXryfqyJadW8-48" value="&lt;font style=&quot;font-size: 6px&quot;&gt;Mardi&lt;/font&gt;" style="rounded=0;whiteSpace=wrap;html=1;" vertex="1" parent="1">
          <mxGeometry x="315" y="420" width="40" height="10" as="geometry" />
        </mxCell>
        <mxCell id="eQ1a93mBQXryfqyJadW8-49" value="&lt;font style=&quot;font-size: 6px&quot;&gt;Mercredi&lt;/font&gt;" style="rounded=0;whiteSpace=wrap;html=1;" vertex="1" parent="1">
          <mxGeometry x="355" y="420" width="40" height="10" as="geometry" />
        </mxCell>
        <mxCell id="eQ1a93mBQXryfqyJadW8-50" value="&lt;font style=&quot;font-size: 6px&quot;&gt;Jeudi&lt;/font&gt;" style="rounded=0;whiteSpace=wrap;html=1;" vertex="1" parent="1">
          <mxGeometry x="395" y="420" width="40" height="10" as="geometry" />
        </mxCell>
        <mxCell id="eQ1a93mBQXryfqyJadW8-51" value="&lt;font style=&quot;font-size: 6px&quot;&gt;Vendredi&lt;/font&gt;" style="rounded=0;whiteSpace=wrap;html=1;" vertex="1" parent="1">
          <mxGeometry x="435" y="420" width="40" height="10" as="geometry" />
        </mxCell>
        <mxCell id="eQ1a93mBQXryfqyJadW8-53" value="&lt;font style=&quot;font-size: 6px&quot;&gt;8:30-10:00&lt;/font&gt;" style="rounded=0;whiteSpace=wrap;html=1;" vertex="1" parent="1">
          <mxGeometry x="230" y="430" width="45" height="20" as="geometry" />
        </mxCell>
        <mxCell id="eQ1a93mBQXryfqyJadW8-54" value="&lt;font style=&quot;font-size: 6px&quot;&gt;10:15-11:45&lt;/font&gt;" style="rounded=0;whiteSpace=wrap;html=1;" vertex="1" parent="1">
          <mxGeometry x="230" y="450" width="45" height="20" as="geometry" />
        </mxCell>
        <mxCell id="eQ1a93mBQXryfqyJadW8-55" value="&lt;font style=&quot;font-size: 6px&quot;&gt;12:00-13:30&lt;/font&gt;" style="rounded=0;whiteSpace=wrap;html=1;" vertex="1" parent="1">
          <mxGeometry x="230" y="470" width="45" height="20" as="geometry" />
        </mxCell>
        <mxCell id="eQ1a93mBQXryfqyJadW8-56" value="&lt;font style=&quot;font-size: 6px&quot;&gt;13:45-15:15&lt;/font&gt;" style="rounded=0;whiteSpace=wrap;html=1;" vertex="1" parent="1">
          <mxGeometry x="230" y="490" width="45" height="20" as="geometry" />
        </mxCell>
        <mxCell id="eQ1a93mBQXryfqyJadW8-57" value="&lt;font style=&quot;font-size: 6px&quot;&gt;15:30-17:00&lt;/font&gt;" style="rounded=0;whiteSpace=wrap;html=1;" vertex="1" parent="1">
          <mxGeometry x="230" y="510" width="45" height="20" as="geometry" />
        </mxCell>
        <mxCell id="eQ1a93mBQXryfqyJadW8-59" value="&lt;font&gt;&lt;font style=&quot;font-size: 3px&quot;&gt;&lt;font&gt;Cours&lt;br&gt;Professeur&lt;br&gt;&lt;/font&gt;Groupe&lt;br&gt;Site&lt;br&gt;type_cours&lt;/font&gt;&lt;br&gt;&lt;/font&gt;" style="rounded=0;whiteSpace=wrap;html=1;fontSize=3;" vertex="1" parent="1">
          <mxGeometry x="275" y="430" width="40" height="20" as="geometry" />
        </mxCell>
        <mxCell id="eQ1a93mBQXryfqyJadW8-61" value="" style="rounded=0;whiteSpace=wrap;html=1;" vertex="1" parent="1">
          <mxGeometry x="275" y="450" width="40" height="20" as="geometry" />
        </mxCell>
        <mxCell id="eQ1a93mBQXryfqyJadW8-62" value="" style="rounded=0;whiteSpace=wrap;html=1;" vertex="1" parent="1">
          <mxGeometry x="315" y="450" width="40" height="20" as="geometry" />
        </mxCell>
        <mxCell id="eQ1a93mBQXryfqyJadW8-64" value="" style="rounded=0;whiteSpace=wrap;html=1;" vertex="1" parent="1">
          <mxGeometry x="275" y="470" width="40" height="20" as="geometry" />
        </mxCell>
        <mxCell id="eQ1a93mBQXryfqyJadW8-66" value="" style="rounded=0;whiteSpace=wrap;html=1;" vertex="1" parent="1">
          <mxGeometry x="315" y="490" width="40" height="20" as="geometry" />
        </mxCell>
        <mxCell id="eQ1a93mBQXryfqyJadW8-67" value="" style="rounded=0;whiteSpace=wrap;html=1;" vertex="1" parent="1">
          <mxGeometry x="275" y="510" width="40" height="20" as="geometry" />
        </mxCell>
        <mxCell id="eQ1a93mBQXryfqyJadW8-68" value="" style="rounded=0;whiteSpace=wrap;html=1;" vertex="1" parent="1">
          <mxGeometry x="315" y="510" width="40" height="20" as="geometry" />
        </mxCell>
        <mxCell id="eQ1a93mBQXryfqyJadW8-69" value="" style="rounded=0;whiteSpace=wrap;html=1;" vertex="1" parent="1">
          <mxGeometry x="355" y="430" width="40" height="20" as="geometry" />
        </mxCell>
        <mxCell id="eQ1a93mBQXryfqyJadW8-70" value="" style="rounded=0;whiteSpace=wrap;html=1;" vertex="1" parent="1">
          <mxGeometry x="355" y="450" width="40" height="20" as="geometry" />
        </mxCell>
        <mxCell id="eQ1a93mBQXryfqyJadW8-71" value="" style="rounded=0;whiteSpace=wrap;html=1;" vertex="1" parent="1">
          <mxGeometry x="355" y="470" width="40" height="20" as="geometry" />
        </mxCell>
        <mxCell id="eQ1a93mBQXryfqyJadW8-72" value="" style="rounded=0;whiteSpace=wrap;html=1;" vertex="1" parent="1">
          <mxGeometry x="355" y="510" width="40" height="20" as="geometry" />
        </mxCell>
        <mxCell id="eQ1a93mBQXryfqyJadW8-74" value="" style="rounded=0;whiteSpace=wrap;html=1;" vertex="1" parent="1">
          <mxGeometry x="395" y="490" width="40" height="20" as="geometry" />
        </mxCell>
        <mxCell id="eQ1a93mBQXryfqyJadW8-75" value="" style="rounded=0;whiteSpace=wrap;html=1;" vertex="1" parent="1">
          <mxGeometry x="395" y="510" width="40" height="20" as="geometry" />
        </mxCell>
        <mxCell id="eQ1a93mBQXryfqyJadW8-78" value="" style="rounded=0;whiteSpace=wrap;html=1;" vertex="1" parent="1">
          <mxGeometry x="395" y="430" width="40" height="20" as="geometry" />
        </mxCell>
        <mxCell id="eQ1a93mBQXryfqyJadW8-80" value="" style="rounded=0;whiteSpace=wrap;html=1;" vertex="1" parent="1">
          <mxGeometry x="435" y="430" width="40" height="20" as="geometry" />
        </mxCell>
        <mxCell id="eQ1a93mBQXryfqyJadW8-81" value="" style="rounded=0;whiteSpace=wrap;html=1;" vertex="1" parent="1">
          <mxGeometry x="435" y="450" width="40" height="20" as="geometry" />
        </mxCell>
        <mxCell id="eQ1a93mBQXryfqyJadW8-83" value="" style="rounded=0;whiteSpace=wrap;html=1;" vertex="1" parent="1">
          <mxGeometry x="395" y="470" width="40" height="20" as="geometry" />
        </mxCell>
        <mxCell id="eQ1a93mBQXryfqyJadW8-84" value="&lt;font&gt;&lt;font style=&quot;font-size: 3px&quot;&gt;&lt;font&gt;Cours&lt;br&gt;Professeur&lt;br&gt;&lt;/font&gt;Groupe&lt;br&gt;Site&lt;br&gt;type_cours&lt;/font&gt;&lt;br&gt;&lt;/font&gt;" style="rounded=0;whiteSpace=wrap;html=1;fontSize=3;" vertex="1" parent="1">
          <mxGeometry x="315" y="430" width="40" height="20" as="geometry" />
        </mxCell>
        <mxCell id="eQ1a93mBQXryfqyJadW8-85" value="&lt;font&gt;&lt;font style=&quot;font-size: 3px&quot;&gt;&lt;font&gt;Cours&lt;br&gt;Professeur&lt;br&gt;&lt;/font&gt;Groupe&lt;br&gt;Site&lt;br&gt;type_cours&lt;/font&gt;&lt;br&gt;&lt;/font&gt;" style="rounded=0;whiteSpace=wrap;html=1;fontSize=3;" vertex="1" parent="1">
          <mxGeometry x="315" y="470" width="40" height="20" as="geometry" />
        </mxCell>
        <mxCell id="eQ1a93mBQXryfqyJadW8-86" value="&lt;font&gt;&lt;font style=&quot;font-size: 3px&quot;&gt;&lt;font&gt;Cours&lt;br&gt;Professeur&lt;br&gt;&lt;/font&gt;Groupe&lt;br&gt;Site&lt;br&gt;type_cours&lt;/font&gt;&lt;br&gt;&lt;/font&gt;" style="rounded=0;whiteSpace=wrap;html=1;fontSize=3;" vertex="1" parent="1">
          <mxGeometry x="275" y="490" width="40" height="20" as="geometry" />
        </mxCell>
        <mxCell id="eQ1a93mBQXryfqyJadW8-87" value="&lt;font&gt;&lt;font style=&quot;font-size: 3px&quot;&gt;&lt;font&gt;Cours&lt;br&gt;Professeur&lt;br&gt;&lt;/font&gt;Groupe&lt;br&gt;Site&lt;br&gt;type_cours&lt;/font&gt;&lt;br&gt;&lt;/font&gt;" style="rounded=0;whiteSpace=wrap;html=1;fontSize=3;" vertex="1" parent="1">
          <mxGeometry x="355" y="490" width="40" height="20" as="geometry" />
        </mxCell>
        <mxCell id="eQ1a93mBQXryfqyJadW8-88" value="&lt;font&gt;&lt;font style=&quot;font-size: 3px&quot;&gt;&lt;font&gt;Cours&lt;br&gt;Professeur&lt;br&gt;&lt;/font&gt;Groupe&lt;br&gt;Site&lt;br&gt;type_cours&lt;/font&gt;&lt;br&gt;&lt;/font&gt;" style="rounded=0;whiteSpace=wrap;html=1;fontSize=3;" vertex="1" parent="1">
          <mxGeometry x="395" y="450" width="40" height="20" as="geometry" />
        </mxCell>
        <mxCell id="eQ1a93mBQXryfqyJadW8-89" value="&lt;font&gt;&lt;font style=&quot;font-size: 3px&quot;&gt;&lt;font&gt;Cours&lt;br&gt;Professeur&lt;br&gt;&lt;/font&gt;Groupe&lt;br&gt;Site&lt;br&gt;type_cours&lt;/font&gt;&lt;br&gt;&lt;/font&gt;" style="rounded=0;whiteSpace=wrap;html=1;fontSize=3;" vertex="1" parent="1">
          <mxGeometry x="435" y="490" width="40" height="20" as="geometry" />
        </mxCell>
        <mxCell id="eQ1a93mBQXryfqyJadW8-90" value="&lt;font&gt;&lt;font style=&quot;font-size: 3px&quot;&gt;&lt;font&gt;Cours&lt;br&gt;Professeur&lt;br&gt;&lt;/font&gt;Groupe&lt;br&gt;Site&lt;br&gt;type_cours&lt;/font&gt;&lt;br&gt;&lt;/font&gt;" style="rounded=0;whiteSpace=wrap;html=1;fontSize=3;" vertex="1" parent="1">
          <mxGeometry x="435" y="470" width="40" height="20" as="geometry" />
        </mxCell>
        <mxCell id="eQ1a93mBQXryfqyJadW8-91" value="&lt;font&gt;&lt;font style=&quot;font-size: 3px&quot;&gt;&lt;font&gt;Cours&lt;br&gt;Professeur&lt;br&gt;&lt;/font&gt;Groupe&lt;br&gt;Site&lt;br&gt;type_cours&lt;/font&gt;&lt;br&gt;&lt;/font&gt;" style="rounded=0;whiteSpace=wrap;html=1;fontSize=3;" vertex="1" parent="1">
          <mxGeometry x="435" y="510" width="40" height="20" as="geometry" />
        </mxCell>
        <mxCell id="eQ1a93mBQXryfqyJadW8-144" style="edgeStyle=orthogonalEdgeStyle;rounded=0;orthogonalLoop=1;jettySize=auto;html=1;entryX=1;entryY=0.25;entryDx=0;entryDy=0;exitX=0.5;exitY=1;exitDx=0;exitDy=0;" edge="1" parent="1" source="eQ1a93mBQXryfqyJadW8-95" target="eQ1a93mBQXryfqyJadW8-12">
          <mxGeometry relative="1" as="geometry" />
        </mxCell>
        <mxCell id="eQ1a93mBQXryfqyJadW8-95" value="" style="rounded=0;whiteSpace=wrap;html=1;" vertex="1" parent="1">
          <mxGeometry x="572.5" y="190" width="213" height="110" as="geometry" />
        </mxCell>
        <mxCell id="eQ1a93mBQXryfqyJadW8-96" value="Choisir un Ã©tudiant" style="rounded=0;whiteSpace=wrap;html=1;" vertex="1" parent="1">
          <mxGeometry x="628" y="190" width="115" height="30" as="geometry" />
        </mxCell>
        <mxCell id="eQ1a93mBQXryfqyJadW8-98" value="" style="rounded=0;whiteSpace=wrap;html=1;" vertex="1" parent="1">
          <mxGeometry x="615.5" y="240" width="140" height="20" as="geometry" />
        </mxCell>
        <mxCell id="eQ1a93mBQXryfqyJadW8-99" value="Entrez le nom de l&#39;Ã©tudiant" style="text;html=1;strokeColor=none;fillColor=none;align=center;verticalAlign=middle;whiteSpace=wrap;rounded=0;" vertex="1" parent="1">
          <mxGeometry x="600.5" y="220" width="170" height="20" as="geometry" />
        </mxCell>
        <mxCell id="eQ1a93mBQXryfqyJadW8-100" value="Valider" style="rounded=1;whiteSpace=wrap;html=1;" vertex="1" parent="1">
          <mxGeometry x="655.5" y="270" width="60" height="20" as="geometry" />
        </mxCell>
        <mxCell id="eQ1a93mBQXryfqyJadW8-102" value="" style="rounded=0;whiteSpace=wrap;html=1;" vertex="1" parent="1">
          <mxGeometry x="530" y="420" width="280" height="190" as="geometry" />
        </mxCell>
        <mxCell id="eQ1a93mBQXryfqyJadW8-104" value="&lt;font style=&quot;font-size: 8px&quot;&gt;Emploi du temps&lt;/font&gt;" style="rounded=0;whiteSpace=wrap;html=1;" vertex="1" parent="1">
          <mxGeometry x="530" y="420" width="140" height="20" as="geometry" />
        </mxCell>
        <mxCell id="eQ1a93mBQXryfqyJadW8-106" value="&lt;font style=&quot;font-size: 8px&quot;&gt;RÃ©capitulatif des cours&lt;/font&gt;" style="rounded=0;whiteSpace=wrap;html=1;" vertex="1" parent="1">
          <mxGeometry x="670" y="420" width="140" height="20" as="geometry" />
        </mxCell>
        <mxCell id="eQ1a93mBQXryfqyJadW8-107" value="" style="rounded=0;whiteSpace=wrap;html=1;" vertex="1" parent="1">
          <mxGeometry x="537.5" y="450" width="10" height="10" as="geometry" />
        </mxCell>
        <mxCell id="eQ1a93mBQXryfqyJadW8-108" value="" style="rounded=0;whiteSpace=wrap;html=1;" vertex="1" parent="1">
          <mxGeometry x="547.5" y="450" width="10" height="10" as="geometry" />
        </mxCell>
        <mxCell id="eQ1a93mBQXryfqyJadW8-109" value="" style="rounded=0;whiteSpace=wrap;html=1;" vertex="1" parent="1">
          <mxGeometry x="567.5" y="450" width="10" height="10" as="geometry" />
        </mxCell>
        <mxCell id="eQ1a93mBQXryfqyJadW8-110" value="" style="rounded=0;whiteSpace=wrap;html=1;" vertex="1" parent="1">
          <mxGeometry x="577.5" y="450" width="10" height="10" as="geometry" />
        </mxCell>
        <mxCell id="eQ1a93mBQXryfqyJadW8-111" value="" style="rounded=0;whiteSpace=wrap;html=1;" vertex="1" parent="1">
          <mxGeometry x="587.5" y="450" width="10" height="10" as="geometry" />
        </mxCell>
        <mxCell id="eQ1a93mBQXryfqyJadW8-112" value="" style="rounded=0;whiteSpace=wrap;html=1;" vertex="1" parent="1">
          <mxGeometry x="597.5" y="450" width="10" height="10" as="geometry" />
        </mxCell>
        <mxCell id="eQ1a93mBQXryfqyJadW8-113" value="" style="rounded=0;whiteSpace=wrap;html=1;" vertex="1" parent="1">
          <mxGeometry x="607.5" y="450" width="10" height="10" as="geometry" />
        </mxCell>
        <mxCell id="eQ1a93mBQXryfqyJadW8-114" value="" style="rounded=0;whiteSpace=wrap;html=1;" vertex="1" parent="1">
          <mxGeometry x="617.5" y="450" width="10" height="10" as="geometry" />
        </mxCell>
        <mxCell id="eQ1a93mBQXryfqyJadW8-115" value="" style="rounded=0;whiteSpace=wrap;html=1;" vertex="1" parent="1">
          <mxGeometry x="627.5" y="450" width="10" height="10" as="geometry" />
        </mxCell>
        <mxCell id="eQ1a93mBQXryfqyJadW8-116" value="" style="rounded=0;whiteSpace=wrap;html=1;" vertex="1" parent="1">
          <mxGeometry x="637.5" y="450" width="10" height="10" as="geometry" />
        </mxCell>
        <mxCell id="eQ1a93mBQXryfqyJadW8-117" value="" style="rounded=0;whiteSpace=wrap;html=1;" vertex="1" parent="1">
          <mxGeometry x="647.5" y="450" width="10" height="10" as="geometry" />
        </mxCell>
        <mxCell id="eQ1a93mBQXryfqyJadW8-118" value="" style="rounded=0;whiteSpace=wrap;html=1;" vertex="1" parent="1">
          <mxGeometry x="557.5" y="450" width="10" height="10" as="geometry" />
        </mxCell>
        <mxCell id="eQ1a93mBQXryfqyJadW8-119" value="" style="rounded=0;whiteSpace=wrap;html=1;" vertex="1" parent="1">
          <mxGeometry x="657.5" y="450" width="10" height="10" as="geometry" />
        </mxCell>
        <mxCell id="eQ1a93mBQXryfqyJadW8-120" value="" style="rounded=0;whiteSpace=wrap;html=1;" vertex="1" parent="1">
          <mxGeometry x="667.5" y="450" width="10" height="10" as="geometry" />
        </mxCell>
        <mxCell id="eQ1a93mBQXryfqyJadW8-121" value="" style="rounded=0;whiteSpace=wrap;html=1;" vertex="1" parent="1">
          <mxGeometry x="677.5" y="450" width="10" height="10" as="geometry" />
        </mxCell>
        <mxCell id="eQ1a93mBQXryfqyJadW8-122" value="" style="rounded=0;whiteSpace=wrap;html=1;" vertex="1" parent="1">
          <mxGeometry x="687.5" y="450" width="10" height="10" as="geometry" />
        </mxCell>
        <mxCell id="eQ1a93mBQXryfqyJadW8-123" value="" style="rounded=0;whiteSpace=wrap;html=1;" vertex="1" parent="1">
          <mxGeometry x="697.5" y="450" width="10" height="10" as="geometry" />
        </mxCell>
        <mxCell id="eQ1a93mBQXryfqyJadW8-124" value="" style="rounded=0;whiteSpace=wrap;html=1;" vertex="1" parent="1">
          <mxGeometry x="707.5" y="450" width="10" height="10" as="geometry" />
        </mxCell>
        <mxCell id="eQ1a93mBQXryfqyJadW8-125" value="" style="rounded=0;whiteSpace=wrap;html=1;" vertex="1" parent="1">
          <mxGeometry x="717.5" y="450" width="10" height="10" as="geometry" />
        </mxCell>
        <mxCell id="eQ1a93mBQXryfqyJadW8-126" value="" style="rounded=0;whiteSpace=wrap;html=1;" vertex="1" parent="1">
          <mxGeometry x="727.5" y="450" width="10" height="10" as="geometry" />
        </mxCell>
        <mxCell id="eQ1a93mBQXryfqyJadW8-127" value="" style="rounded=0;whiteSpace=wrap;html=1;" vertex="1" parent="1">
          <mxGeometry x="737.5" y="450" width="10" height="10" as="geometry" />
        </mxCell>
        <mxCell id="eQ1a93mBQXryfqyJadW8-128" value="" style="rounded=0;whiteSpace=wrap;html=1;" vertex="1" parent="1">
          <mxGeometry x="747.5" y="450" width="10" height="10" as="geometry" />
        </mxCell>
        <mxCell id="eQ1a93mBQXryfqyJadW8-129" value="" style="rounded=0;whiteSpace=wrap;html=1;" vertex="1" parent="1">
          <mxGeometry x="757.5" y="450" width="10" height="10" as="geometry" />
        </mxCell>
        <mxCell id="eQ1a93mBQXryfqyJadW8-130" value="" style="rounded=0;whiteSpace=wrap;html=1;" vertex="1" parent="1">
          <mxGeometry x="767.5" y="450" width="10" height="10" as="geometry" />
        </mxCell>
        <mxCell id="eQ1a93mBQXryfqyJadW8-131" value="" style="rounded=0;whiteSpace=wrap;html=1;" vertex="1" parent="1">
          <mxGeometry x="777.5" y="450" width="10" height="10" as="geometry" />
        </mxCell>
        <mxCell id="eQ1a93mBQXryfqyJadW8-132" value="" style="rounded=0;whiteSpace=wrap;html=1;" vertex="1" parent="1">
          <mxGeometry x="787.5" y="450" width="10" height="10" as="geometry" />
        </mxCell>
        <mxCell id="eQ1a93mBQXryfqyJadW8-133" value="&lt;font style=&quot;font-size: 8px&quot;&gt;Date&lt;/font&gt;" style="rounded=1;whiteSpace=wrap;html=1;" vertex="1" parent="1">
          <mxGeometry x="540" y="480" width="220" height="10" as="geometry" />
        </mxCell>
        <mxCell id="eQ1a93mBQXryfqyJadW8-135" value="&lt;font style=&quot;font-size: 8px&quot;&gt;Date&lt;/font&gt;" style="rounded=1;whiteSpace=wrap;html=1;" vertex="1" parent="1">
          <mxGeometry x="540" y="510" width="220" height="10" as="geometry" />
        </mxCell>
        <mxCell id="eQ1a93mBQXryfqyJadW8-137" value="&lt;font style=&quot;font-size: 8px&quot;&gt;Date&lt;/font&gt;" style="rounded=1;whiteSpace=wrap;html=1;" vertex="1" parent="1">
          <mxGeometry x="540" y="550" width="220" height="10" as="geometry" />
        </mxCell>
        <mxCell id="eQ1a93mBQXryfqyJadW8-138" value="&lt;font style=&quot;font-size: 8px&quot;&gt;Date&lt;/font&gt;" style="rounded=1;whiteSpace=wrap;html=1;" vertex="1" parent="1">
          <mxGeometry x="540" y="580" width="220" height="10" as="geometry" />
        </mxCell>
        <mxCell id="eQ1a93mBQXryfqyJadW8-139" value="&lt;font style=&quot;font-size: 6px&quot;&gt;Heure &amp;nbsp; &amp;nbsp; &amp;nbsp; &amp;nbsp; &amp;nbsp; &amp;nbsp; &amp;nbsp; &amp;nbsp; &amp;nbsp; &amp;nbsp; &amp;nbsp; Cours &amp;nbsp; &amp;nbsp; &amp;nbsp; &amp;nbsp; &amp;nbsp; &amp;nbsp; &amp;nbsp; &amp;nbsp; &amp;nbsp; &amp;nbsp; &amp;nbsp; &amp;nbsp;Groupe(s) &amp;nbsp; &amp;nbsp; &amp;nbsp; &amp;nbsp; &amp;nbsp; &amp;nbsp; &amp;nbsp; &amp;nbsp; &amp;nbsp; &amp;nbsp; &amp;nbsp; &amp;nbsp;Salle &amp;nbsp;&lt;/font&gt;" style="text;html=1;strokeColor=none;fillColor=none;align=center;verticalAlign=middle;whiteSpace=wrap;rounded=0;" vertex="1" parent="1">
          <mxGeometry x="537.5" y="540" width="217" as="geometry" />
        </mxCell>
        <mxCell id="eQ1a93mBQXryfqyJadW8-140" value="&lt;font style=&quot;font-size: 6px&quot;&gt;Heure &amp;nbsp; &amp;nbsp; &amp;nbsp; &amp;nbsp; &amp;nbsp; &amp;nbsp; &amp;nbsp; &amp;nbsp; &amp;nbsp; &amp;nbsp; &amp;nbsp; Cours &amp;nbsp; &amp;nbsp; &amp;nbsp; &amp;nbsp; &amp;nbsp; &amp;nbsp; &amp;nbsp; &amp;nbsp; &amp;nbsp; &amp;nbsp; &amp;nbsp; &amp;nbsp;Groupe(s) &amp;nbsp; &amp;nbsp; &amp;nbsp; &amp;nbsp; &amp;nbsp; &amp;nbsp; &amp;nbsp; &amp;nbsp; &amp;nbsp; &amp;nbsp; &amp;nbsp; &amp;nbsp;Salle &amp;nbsp;&lt;/font&gt;" style="text;html=1;strokeColor=none;fillColor=none;align=center;verticalAlign=middle;whiteSpace=wrap;rounded=0;" vertex="1" parent="1">
          <mxGeometry x="537.5" y="570" width="217" as="geometry" />
        </mxCell>
        <mxCell id="eQ1a93mBQXryfqyJadW8-141" value="&lt;font style=&quot;font-size: 6px&quot;&gt;Heure &amp;nbsp; &amp;nbsp; &amp;nbsp; &amp;nbsp; &amp;nbsp; &amp;nbsp; &amp;nbsp; &amp;nbsp; &amp;nbsp; &amp;nbsp; &amp;nbsp; Cours &amp;nbsp; &amp;nbsp; &amp;nbsp; &amp;nbsp; &amp;nbsp; &amp;nbsp; &amp;nbsp; &amp;nbsp; &amp;nbsp; &amp;nbsp; &amp;nbsp; &amp;nbsp;Groupe(s) &amp;nbsp; &amp;nbsp; &amp;nbsp; &amp;nbsp; &amp;nbsp; &amp;nbsp; &amp;nbsp; &amp;nbsp; &amp;nbsp; &amp;nbsp; &amp;nbsp; &amp;nbsp;Salle &amp;nbsp;&lt;/font&gt;" style="text;html=1;strokeColor=none;fillColor=none;align=center;verticalAlign=middle;whiteSpace=wrap;rounded=0;" vertex="1" parent="1">
          <mxGeometry x="537.5" y="530" width="217" as="geometry" />
        </mxCell>
        <mxCell id="eQ1a93mBQXryfqyJadW8-142" value="&lt;font style=&quot;font-size: 6px&quot;&gt;Heure &amp;nbsp; &amp;nbsp; &amp;nbsp; &amp;nbsp; &amp;nbsp; &amp;nbsp; &amp;nbsp; &amp;nbsp; &amp;nbsp; &amp;nbsp; &amp;nbsp; Cours &amp;nbsp; &amp;nbsp; &amp;nbsp; &amp;nbsp; &amp;nbsp; &amp;nbsp; &amp;nbsp; &amp;nbsp; &amp;nbsp; &amp;nbsp; &amp;nbsp; &amp;nbsp;Groupe(s) &amp;nbsp; &amp;nbsp; &amp;nbsp; &amp;nbsp; &amp;nbsp; &amp;nbsp; &amp;nbsp; &amp;nbsp; &amp;nbsp; &amp;nbsp; &amp;nbsp; &amp;nbsp;Salle &amp;nbsp;&lt;/font&gt;" style="text;html=1;strokeColor=none;fillColor=none;align=center;verticalAlign=middle;whiteSpace=wrap;rounded=0;" vertex="1" parent="1">
          <mxGeometry x="537.5" y="500" width="217" as="geometry" />
        </mxCell>
        <mxCell id="eQ1a93mBQXryfqyJadW8-143" value="&lt;font style=&quot;font-size: 6px&quot;&gt;Heure &amp;nbsp; &amp;nbsp; &amp;nbsp; &amp;nbsp; &amp;nbsp; &amp;nbsp; &amp;nbsp; &amp;nbsp; &amp;nbsp; &amp;nbsp; &amp;nbsp; Cours &amp;nbsp; &amp;nbsp; &amp;nbsp; &amp;nbsp; &amp;nbsp; &amp;nbsp; &amp;nbsp; &amp;nbsp; &amp;nbsp; &amp;nbsp; &amp;nbsp; &amp;nbsp;Groupe(s) &amp;nbsp; &amp;nbsp; &amp;nbsp; &amp;nbsp; &amp;nbsp; &amp;nbsp; &amp;nbsp; &amp;nbsp; &amp;nbsp; &amp;nbsp; &amp;nbsp; &amp;nbsp;Salle &amp;nbsp;&lt;/font&gt;" style="text;html=1;strokeColor=none;fillColor=none;align=center;verticalAlign=middle;whiteSpace=wrap;rounded=0;" vertex="1" parent="1">
          <mxGeometry x="537.5" y="600" width="217" as="geometry" />
        </mxCell>
        <mxCell id="eQ1a93mBQXryfqyJadW8-145" value="Bienvenue sur votre emploi du temps ECE Paris" style="text;html=1;strokeColor=none;fillColor=none;align=center;verticalAlign=middle;whiteSpace=wrap;rounded=0;" vertex="1" parent="1">
          <mxGeometry x="307.5" y="185" width="180" height="20" as="geometry" />
        </mxCell>
      </root>
    </mxGraphModel>
  </diagram>
</mxfile>
